PathFileType	4	(X/Y/Z)	/Users/niels/Desktop/University/Third Semester/Perception and Action/Exam/Gymnastics Motion Tracking/Code for Gym Tracking/Analyzed Data/Webcam_Backflip/id6_3_pure_Sports2D/id6_3_pure_Sports2D_px_person00.trc
DataRate	CameraRate	NumFrames	NumMarkers	Units	OrigDataRate	OrigDataStartFrame	OrigNumFrames
29.8125	29.8125	8	22	m	29.8125	140	160
Frame#	Time	Hip			RHip			RKnee			RAnkle			RBigToe			RSmallToe			RHeel			LHip			LKnee			LAnkle			LBigToe			LSmallToe			LHeel			Neck			Head			Nose			RShoulder			RElbow			RWrist			LShoulder			LElbow			LWrist		
		X1	Y1	Z1	X2	Y2	Z2	X3	Y3	Z3	X4	Y4	Z4	X5	Y5	Z5	X6	Y6	Z6	X7	Y7	Z7	X8	Y8	Z8	X9	Y9	Z9	X10	Y10	Z10	X11	Y11	Z11	X12	Y12	Z12	X13	Y13	Z13	X14	Y14	Z14	X15	Y15	Z15	X16	Y16	Z16	X17	Y17	Z17	X18	Y18	Z18	X19	Y19	Z19	X20	Y20	Z20	X21	Y21	Z21	X22	Y22	Z22
140	4.696016771488469	0.9672009164735875	-0.5654744619630803	0.0	0.9529545223773428	-0.5651463758686748	0.0	0.9642726035336352	-0.6613168104211438	0.0	0.9475542342666997	-0.7554727707832621	0.0	0.9767167294329422	-0.7831775392992635	0.0	0.9655639874149436	-0.7845966408083419	0.0	0.9395460407194366	-0.7716161247501401	0.0	0.9784779767101465	-0.5631048706923273	0.0	0.9731791159019846	-0.6621665904028822	0.0	0.9535260202919738	-0.750862831725346	0.0	0.9840876400471881	-0.7803241448613537	0.0	0.9814534137361962	-0.775880465031096	0.0	0.9418253035052392	-0.7646830014707436	0.0	0.9734556195875116	-0.42898539226265575	0.0	0.9912132788433722	-0.35937064672396796	0.0	0.9984114652535492	-0.39467574478082573	0.0	0.9522147370938039	-0.4454946391447089	0.0	0.9411418334390098	-0.5123458053921178	0.0	0.9494000624359742	-0.5742066115511542	0.0	0.988892406037874	-0.44640364028215285	0.0	0.9877773873517617	-0.5129508409091718	0.0	1.000549785502959	-0.5732729615677291	0.0
141	4.729559748427672	0.9675278596313438	-0.5741252016581148	0.0	0.9525047083159592	-0.5733938603783088	0.0	0.9632342219764007	-0.6701246411675359	0.0	0.9470760694561099	-0.7643967648567842	0.0	0.9755367401206522	-0.7911234942576583	0.0	0.9646506424184912	-0.7924240474380994	0.0	0.9389616295153105	-0.78015972894388	0.0	0.9796178963046684	-0.5713772338834118	0.0	0.9734908315224835	-0.6710006117963729	0.0	0.9536653244126296	-0.7597159780850313	0.0	0.9839266728843963	-0.788127761052054	0.0	0.9814440394381163	-0.7835289812284171	0.0	0.9420709403955366	-0.7732092035880913	0.0	0.9731452096882293	-0.43803905961144834	0.0	0.9902010402492032	-0.36880123177653307	0.0	0.9979486599053387	-0.40403337987665366	0.0	0.9510914120066645	-0.4550203501818527	0.0	0.9401135912849853	-0.5220979380415618	0.0	0.9485943432840814	-0.583752395426819	0.0	0.989736329746094	-0.45556450286795946	0.0	0.9887483399872151	-0.5223519867744669	0.0	1.0012115301294815	-0.5831603633665411	0.0
142	4.763102725366876	0.9678353702376794	-0.5836872199787432	0.0	0.952361451439502	-0.5824318253291467	0.0	0.9624327253888748	-0.6800741964831901	0.0	0.9465407537306674	-0.7745393903072046	0.0	0.9739083871178147	-0.8001475075443176	0.0	0.9634332385805056	-0.8012352577369366	0.0	0.9384582590718853	-0.7895627289493701	0.0	0.9805318617684075	-0.5804242334195979	0.0	0.9735296286341876	-0.6809207043987479	0.0	0.9536057299940652	-0.7699723854049001	0.0	0.9834118038705895	-0.7969287531398878	0.0	0.9811437084236369	-0.7922291359345378	0.0	0.9421155732687785	-0.7829752484418935	0.0	0.9728119446970162	-0.44825117791489627	0.0	0.9892345775167374	-0.37961677701220436	0.0	0.9973701793653937	-0.4148382017421437	0.0	0.9498221194187983	-0.46574693972532766	0.0	0.9389107770305084	-0.5332002041694506	0.0	0.9474512307095239	-0.5949228496557052	0.0	0.9903542379285866	-0.46597243710083924	0.0	0.989472719915577	-0.5329968350237952	0.0	1.0016058899135822	-0.5943479008466869	0.0
143	4.796645702306079	0.9681231077675163	-0.5934441502701645	0.0	0.952565336682404	-0.5914370273350098	0.0	0.9618367843577404	-0.6904671656736882	0.0	0.9459793551316845	-0.7850517691725342	0.0	0.9720692816562805	-0.8093649652597846	0.0	0.9621192332933832	-0.8101403510149761	0.0	0.9380772123716029	-0.7990139604631677	0.0	0.9811837170803094	-0.5894710550739166	0.0	0.9732300191354165	-0.6912628135096395	0.0	0.9533855316271669	-0.780741770153567	0.0	0.9827476236849626	-0.805876850401403	0.0	0.9807220430477857	-0.8012135352183265	0.0	0.9420199597557678	-0.7931034275737214	0.0	0.9724897667878983	-0.45872399481117315	0.0	0.9883250214804374	-0.3909350715882418	0.0	0.9967167770973865	-0.42615465206388203	0.0	0.948393269844951	-0.4767075151019676	0.0	0.937495841803341	-0.544691395747429	0.0	0.9458278496202298	-0.606745536530449	0.0	0.990782161602263	-0.47681980559509113	0.0	0.9898968675178824	-0.5440240448176281	0.0	1.001609021121315	-0.6061580055255434	0.0
144	4.830188679245282	0.9683919568216675	-0.6023722785783461	0.0	0.9530292350048477	-0.5994197415435724	0.0	0.9613791705831728	-0.7002127198493788	0.0	0.9454369038136702	-0.7947023803384721	0.0	0.9703240973591836	-0.8175800705276154	0.0	0.9609429778018191	-0.8179841907127303	0.0	0.9378243806882783	-0.8074422499367471	0.0	0.981581125151871	-0.5975279176541023	0.0	0.9726654716082367	-0.7009568714392364	0.0	0.9530947030572088	-0.7907412238544785	0.0	0.9821913752663078	-0.8138638742069882	0.0	0.9803861277432915	-0.8093887588823847	0.0	0.9418729984542258	-0.8023776762414638	0.0	0.9722089891563109	-0.46824419337070966	0.0	0.9874881139374497	-0.40145000654538265	0.0	0.9960208617479088	-0.43666961120993325	0.0	0.9468546051547033	-0.48659885270219905	0.0	0.9358704938762058	-0.5552500190819727	0.0	0.9435997273209306	-0.6178175894671921	0.0	0.9911186211742281	-0.48692088800531846	0.0	0.9900578106674698	-0.5541845614777184	0.0	1.001164193670707	-0.6173680125614538	0.0
145	4.863731656184486	0.9685969763914908	-0.6093518362966929	0.0	0.9535219060138818	-0.6054707565157061	0.0	0.9609827734733674	-0.7080157015155714	0.0	0.9449245781759958	-0.8021554658926858	0.0	0.9688355882987504	-0.8236264791844194	0.0	0.9599749617285184	-0.8236768460283209	0.0	0.9376164827626762	-0.8138006272134303	0.0	0.9817498099562781	-0.6036350912951987	0.0	0.9720163384424283	-0.7087087487509173	0.0	0.9528079089026208	-0.7985933619815638	0.0	0.9818643261869975	-0.8198025563095899	0.0	0.9802472808498832	-0.815612382591435	0.0	0.9417511375196045	-0.8095869610288937	0.0	0.971996991800475	-0.47558845631570884	0.0	0.9867281240947566	-0.40974683745448043	0.0	0.9952572277514803	-0.44498886308566044	0.0	0.9453086413550799	-0.49412508861188487	0.0	0.9340814389758705	-0.5634766893891259	0.0	0.9407066162196289	-0.6266300095546327	0.0	0.9914994615972281	-0.49498828942449663	0.0	0.9900806458372794	-0.5621578996747157	0.0	1.0003583781373342	-0.6264358727023763	0.0
146	4.897274633123689	0.9686663420977645	-0.6134238882858041	0.0	0.9537803905675257	-0.6088888010523511	0.0	0.960576827330733	-0.7126918223831727	0.0	0.9444201705471262	-0.806306624354981	0.0	0.967626485612902	-0.8266771989259183	0.0	0.9591296079270994	-0.8264706894573802	0.0	0.9373161037519256	-0.8173225495596896	0.0	0.9817529305713818	-0.6070611332912227	0.0	0.9714660334409825	-0.7133370479687647	0.0	0.9525469129738373	-0.8031433513333733	0.0	0.981701373962169	-0.8228719124104956	0.0	0.9802828237557976	-0.8189958529025302	0.0	0.9417124823653137	-0.81380871495788	0.0	0.9718744724233602	-0.47980931356045353	0.0	0.9860210209049846	-0.4146777712382247	0.0	0.9943451952812448	-0.44997091465310995	0.0	0.9438516235717568	-0.49828654114135557	0.0	0.9321927563643624	-0.5681798442478196	0.0	0.9372070342091411	-0.6319088425646575	0.0	0.9920354427534092	-0.4999570578246517	0.0	0.990135426661603	-0.5668759930339075	0.0	0.9994340505785438	-0.6320021887908456	0.0
147	4.930817610062892	0.9685596318158258	-0.6139586219903984	0.0	0.953641148838354	-0.609203553639205	0.0	0.9601347641032744	-0.713451045519668	0.0	0.943942640117728	-0.8065475819881119	0.0	0.9667611869316834	-0.8263538426071867	0.0	0.9583668942909832	-0.8260499995250377	0.0	0.9368745325994704	-0.8176165093389257	0.0	0.9817029502298468	-0.6073691220419735	0.0	0.9711237372214053	-0.7140922288357919	0.0	0.952331903509512	-0.8037278363742849	0.0	0.9816036061330817	-0.8226702241446812	0.0	0.980428093388255	-0.8190863990842336	0.0	0.9418215296815423	-0.8145434350443514	0.0	0.9718345472813924	-0.4803710082097676	0.0	0.9853468144697017	-0.415613372544632	0.0	0.9931909493475479	-0.4509819052604938	0.0	0.9425224085888749	-0.49853348972689804	0.0	0.930256472295367	-0.5686363495910356	0.0	0.9333182522268607	-0.632893992596461	0.0	0.9927668320836198	-0.5011951657483925	0.0	0.9903939210059105	-0.5676890413842768	0.0	0.9987191450342774	-0.633267942351898	0.0
